{
	"asset":{
		"generator":"Khronos glTF Blender I/O v4.3.47",
		"version":"2.0"
	},
	"extensionsUsed":[
		"KHR_materials_clearcoat",
		"KHR_materials_specular",
		"KHR_materials_ior",
		"KHR_texture_transform"
	],
	"extensionsRequired":[
		"KHR_texture_transform"
	],
	"scene":0,
	"scenes":[
		{
			"name":"Scene",
			"nodes":[
				0
			]
		}
	],
	"nodes":[
		{
			"mesh":0,
			"name":"Cilindro.2731",
			"rotation":[
				-0.4999977946281433,
				0.49999773502349854,
				-0.5000022649765015,
				0.5000022649765015
			],
			"scale":[
				0.05999999865889549,
				1.5902913808822632,
				0.05999999865889549
			],
			"translation":[
				0.07064229249954224,
				2.542178153991699,
				0.6067982912063599
			]
		}
	],
	"materials":[
		{
			"doubleSided":true,
			"extensions":{
				"KHR_materials_specular":{
					"specularColorFactor":[
						1.5,
						1.5,
						1.5
					]
				},
				"KHR_materials_ior":{
					"ior":1.4500000476837158
				}
			},
			"name":"Amarillo.028",
			"pbrMetallicRoughness":{
				"baseColorFactor":[
					0.8340959548950195,
					0.4706713855266571,
					0.004496647510677576,
					1
				],
				"metallicFactor":0,
				"roughnessFactor":0.4045454263687134
			}
		},
		{
			"doubleSided":true,
			"name":"amarillo",
			"normalTexture":{
				"extensions":{
					"KHR_texture_transform":{
						"offset":[
							0,
							-4.299999713897705
						],
						"scale":[
							5.299999713897705,
							5.299999713897705
						]
					}
				},
				"index":0
			},
			"pbrMetallicRoughness":{
				"baseColorTexture":{
					"extensions":{
						"KHR_texture_transform":{
							"offset":[
								0,
								-4.299999713897705
							],
							"scale":[
								5.299999713897705,
								5.299999713897705
							]
						}
					},
					"index":1
				},
				"metallicFactor":0,
				"metallicRoughnessTexture":{
					"extensions":{
						"KHR_texture_transform":{
							"offset":[
								0,
								-4.299999713897705
							],
							"scale":[
								5.299999713897705,
								5.299999713897705
							]
						}
					},
					"index":2
				}
			}
		},
		{
			"doubleSided":true,
			"name":"Naranja.006",
			"pbrMetallicRoughness":{
				"baseColorFactor":[
					0.800000011920929,
					0.15088799595832825,
					0.007091000210493803,
					1
				],
				"metallicFactor":0,
				"roughnessFactor":0.20000000298023224
			}
		},
		{
			"doubleSided":true,
			"extensions":{
				"KHR_materials_specular":{
					"specularColorFactor":[
						1.5272727012634277,
						1.5272727012634277,
						1.5272727012634277
					]
				},
				"KHR_materials_ior":{
					"ior":1.4500000476837158
				}
			},
			"name":"azul.043",
			"pbrMetallicRoughness":{
				"baseColorFactor":[
					0,
					0.031247999519109726,
					0.800000011920929,
					1
				],
				"metallicFactor":0,
				"roughnessFactor":0.331818163394928
			}
		},
		{
			"doubleSided":true,
			"extensions":{
				"KHR_materials_specular":{
					"specularColorFactor":[
						1.2454545497894287,
						1.2454545497894287,
						1.2454545497894287
					]
				},
				"KHR_materials_ior":{
					"ior":1.4500000476837158
				}
			},
			"name":"rojo.032",
			"pbrMetallicRoughness":{
				"baseColorFactor":[
					0.800000011920929,
					0,
					0.0016540000215172768,
					1
				],
				"metallicFactor":0,
				"roughnessFactor":0.331818163394928
			}
		},
		{
			"doubleSided":true,
			"name":"Violeta.001",
			"pbrMetallicRoughness":{
				"baseColorFactor":[
					0.2165279984474182,
					0.024070000275969505,
					0.800000011920929,
					1
				],
				"metallicFactor":0,
				"roughnessFactor":0.5
			}
		},
		{
			"doubleSided":true,
			"extensions":{
				"KHR_materials_specular":{
					"specularColorFactor":[
						1.4727272987365723,
						1.4727272987365723,
						1.4727272987365723
					]
				},
				"KHR_materials_ior":{
					"ior":1.4500000476837158
				}
			},
			"name":"Verde.018",
			"pbrMetallicRoughness":{
				"baseColorFactor":[
					0.11443500220775604,
					1,
					0,
					1
				],
				"metallicFactor":0,
				"roughnessFactor":0.30000001192092896
			}
		},
		{
			"doubleSided":true,
			"extensions":{
				"KHR_materials_specular":{
					"specularColorFactor":[
						1.3454545736312866,
						1.3454545736312866,
						1.3454545736312866
					]
				},
				"KHR_materials_ior":{
					"ior":1.4500000476837158
				}
			},
			"name":"naranjapanel.020",
			"pbrMetallicRoughness":{
				"baseColorFactor":[
					0.800000011920929,
					0.1910959929227829,
					0.07255599647760391,
					1
				],
				"metallicFactor":0,
				"roughnessFactor":0.3181818127632141
			}
		},
		{
			"doubleSided":true,
			"name":"Rojo.003",
			"pbrMetallicRoughness":{
				"baseColorFactor":[
					0.8000000715255737,
					0.029910936951637268,
					0.005100795533508062,
					1
				],
				"metallicFactor":0,
				"roughnessFactor":0.24468085169792175
			}
		},
		{
			"doubleSided":true,
			"name":"metal.001",
			"pbrMetallicRoughness":{
				"baseColorFactor":[
					0.2809893786907196,
					0.2809893786907196,
					0.2809893786907196,
					1
				],
				"roughnessFactor":0.377999871969223
			}
		},
		{
			"doubleSided":true,
			"name":"naranjapanel.018"
		},
		{
			"doubleSided":true,
			"name":"naranjapanel.017"
		},
		{
			"doubleSided":true,
			"name":"MetalColumnaNinja.005"
		},
		{
			"doubleSided":true,
			"name":"Naranja.012"
		},
		{
			"doubleSided":true,
			"name":"AzulRocodromo.001",
			"pbrMetallicRoughness":{
				"baseColorFactor":[
					0.014267527498304844,
					0.04188820719718933,
					0.5173342227935791,
					1
				],
				"metallicFactor":0,
				"roughnessFactor":0.5
			}
		},
		{
			"doubleSided":true,
			"extensions":{
				"KHR_materials_specular":{
					"specularColorFactor":[
						1.3090908527374268,
						1.3090908527374268,
						1.3090908527374268
					]
				},
				"KHR_materials_ior":{
					"ior":1.4500000476837158
				}
			},
			"name":"fusia.004",
			"pbrMetallicRoughness":{
				"baseColorFactor":[
					0.8000000715255737,
					0.004115275107324123,
					0.776824414730072,
					1
				],
				"metallicFactor":0,
				"roughnessFactor":0.33636364340782166
			}
		},
		{
			"doubleSided":true,
			"name":"azul.001",
			"pbrMetallicRoughness":{
				"baseColorFactor":[
					0,
					0.031247999519109726,
					0.800000011920929,
					1
				],
				"metallicFactor":0,
				"roughnessFactor":0.20000000298023224
			}
		},
		{
			"doubleSided":true,
			"name":"fusia.005",
			"pbrMetallicRoughness":{
				"baseColorFactor":[
					0.8000000715255737,
					0.06845368444919586,
					0.5786172151565552,
					1
				],
				"metallicFactor":0,
				"roughnessFactor":0.24013978242874146
			}
		},
		{
			"doubleSided":true,
			"extensions":{
				"KHR_materials_specular":{
					"specularColorFactor":[
						1.7999999523162842,
						1.7999999523162842,
						1.7999999523162842
					]
				},
				"KHR_materials_ior":{
					"ior":1.4500000476837158
				}
			},
			"name":"azul.020",
			"pbrMetallicRoughness":{
				"baseColorFactor":[
					0,
					0.031247999519109726,
					0.800000011920929,
					1
				],
				"metallicFactor":0,
				"roughnessFactor":0.23221901059150696
			}
		},
		{
			"doubleSided":true,
			"extensions":{
				"KHR_materials_specular":{
					"specularColorFactor":[
						1.5333333015441895,
						1.5333333015441895,
						1.5333333015441895
					]
				},
				"KHR_materials_ior":{
					"ior":1.4500000476837158
				}
			},
			"name":"rojo.013",
			"pbrMetallicRoughness":{
				"baseColorFactor":[
					1,
					0,
					0.001825000043027103,
					1
				],
				"metallicFactor":0,
				"roughnessFactor":0.20781365036964417
			}
		},
		{
			"doubleSided":true,
			"name":"Amarilo.001",
			"pbrMetallicRoughness":{
				"baseColorFactor":[
					0.8000000715255737,
					0.5656699538230896,
					0.022107820957899094,
					1
				],
				"metallicFactor":0,
				"roughnessFactor":0.30543947219848633
			}
		},
		{
			"doubleSided":true,
			"extensions":{
				"KHR_materials_clearcoat":{
					"clearcoatRoughnessFactor":0
				}
			},
			"name":"verdepanel.004",
			"pbrMetallicRoughness":{
				"baseColorFactor":[
					0.08345448970794678,
					1,
					0.060355883091688156,
					1
				],
				"metallicFactor":0,
				"roughnessFactor":0.17889337241649628
			}
		},
		{
			"doubleSided":true,
			"extensions":{
				"KHR_materials_specular":{
					"specularColorFactor":[
						1.5,
						1.5,
						1.5
					]
				},
				"KHR_materials_ior":{
					"ior":1.4500000476837158
				}
			},
			"name":"rojo.010",
			"pbrMetallicRoughness":{
				"baseColorFactor":[
					0.800000011920929,
					0,
					0.0016540000215172768,
					1
				],
				"metallicFactor":0,
				"roughnessFactor":0.2772727310657501
			}
		},
		{
			"doubleSided":true,
			"extensions":{
				"KHR_materials_specular":{
					"specularColorFactor":[
						1.4272727966308594,
						1.4272727966308594,
						1.4272727966308594
					]
				},
				"KHR_materials_ior":{
					"ior":1.4500000476837158
				}
			},
			"name":"azul.018",
			"pbrMetallicRoughness":{
				"baseColorFactor":[
					0,
					0.031247999519109726,
					0.800000011920929,
					1
				],
				"metallicFactor":0,
				"roughnessFactor":0.29545456171035767
			}
		},
		{
			"doubleSided":true,
			"name":"negro.000"
		},
		{
			"doubleSided":true,
			"name":"negro.013"
		}
	],
	"meshes":[
		{
			"name":"Cilindro.3641",
			"primitives":[
				{
					"attributes":{
						"POSITION":0,
						"NORMAL":1,
						"TEXCOORD_0":2,
						"TEXCOORD_1":3,
						"COLOR_0":4,
						"COLOR_1":5
					},
					"indices":6,
					"material":0
				},
				{
					"attributes":{
						"POSITION":7,
						"NORMAL":8,
						"TEXCOORD_0":9,
						"TEXCOORD_1":10,
						"COLOR_0":11,
						"COLOR_1":12
					},
					"indices":13,
					"material":1
				},
				{
					"attributes":{
						"POSITION":14,
						"NORMAL":15,
						"TEXCOORD_0":16,
						"TEXCOORD_1":17,
						"COLOR_0":18,
						"COLOR_1":19
					},
					"indices":20,
					"material":2
				},
				{
					"attributes":{
						"POSITION":21,
						"NORMAL":22,
						"TEXCOORD_0":23,
						"TEXCOORD_1":24,
						"COLOR_0":25,
						"COLOR_1":26
					},
					"indices":27,
					"material":3
				},
				{
					"attributes":{
						"POSITION":28,
						"NORMAL":29,
						"TEXCOORD_0":30,
						"TEXCOORD_1":31,
						"COLOR_0":32,
						"COLOR_1":33
					},
					"indices":34,
					"material":4
				},
				{
					"attributes":{
						"POSITION":35,
						"NORMAL":36,
						"TEXCOORD_0":37,
						"TEXCOORD_1":38,
						"COLOR_0":39,
						"COLOR_1":40
					},
					"indices":41,
					"material":5
				},
				{
					"attributes":{
						"POSITION":42,
						"NORMAL":43,
						"TEXCOORD_0":44,
						"TEXCOORD_1":45,
						"COLOR_0":46,
						"COLOR_1":47
					},
					"indices":48,
					"material":6
				},
				{
					"attributes":{
						"POSITION":49,
						"NORMAL":50,
						"TEXCOORD_0":51,
						"TEXCOORD_1":52,
						"COLOR_0":53,
						"COLOR_1":54
					},
					"indices":55,
					"material":7
				},
				{
					"attributes":{
						"POSITION":56,
						"NORMAL":57,
						"TEXCOORD_0":58,
						"TEXCOORD_1":59,
						"COLOR_0":60,
						"COLOR_1":61
					},
					"indices":62,
					"material":8
				},
				{
					"attributes":{
						"POSITION":63,
						"NORMAL":64,
						"TEXCOORD_0":65,
						"TEXCOORD_1":66,
						"COLOR_0":67,
						"COLOR_1":68
					},
					"indices":69,
					"material":9
				},
				{
					"attributes":{
						"POSITION":70,
						"NORMAL":71,
						"TEXCOORD_0":72,
						"TEXCOORD_1":73,
						"COLOR_0":74,
						"COLOR_1":75
					},
					"indices":76,
					"material":10
				},
				{
					"attributes":{
						"POSITION":77,
						"NORMAL":78,
						"TEXCOORD_0":79,
						"TEXCOORD_1":80,
						"COLOR_0":81,
						"COLOR_1":82
					},
					"indices":83,
					"material":11
				},
				{
					"attributes":{
						"POSITION":84,
						"NORMAL":85,
						"TEXCOORD_0":86,
						"TEXCOORD_1":87,
						"COLOR_0":88,
						"COLOR_1":89
					},
					"indices":90,
					"material":12
				},
				{
					"attributes":{
						"POSITION":91,
						"NORMAL":92,
						"TEXCOORD_0":93,
						"TEXCOORD_1":94,
						"COLOR_0":95,
						"COLOR_1":96
					},
					"indices":97,
					"material":13
				},
				{
					"attributes":{
						"POSITION":98,
						"NORMAL":99,
						"TEXCOORD_0":100,
						"TEXCOORD_1":101,
						"COLOR_0":102,
						"COLOR_1":103
					},
					"indices":104,
					"material":14
				},
				{
					"attributes":{
						"POSITION":105,
						"NORMAL":106,
						"TEXCOORD_0":107,
						"TEXCOORD_1":108,
						"COLOR_0":109,
						"COLOR_1":110
					},
					"indices":111,
					"material":15
				},
				{
					"attributes":{
						"POSITION":112,
						"NORMAL":113,
						"TEXCOORD_0":114,
						"TEXCOORD_1":115,
						"COLOR_0":116,
						"COLOR_1":117
					},
					"indices":118,
					"material":16
				},
				{
					"attributes":{
						"POSITION":119,
						"NORMAL":120,
						"TEXCOORD_0":121,
						"TEXCOORD_1":122,
						"COLOR_0":123,
						"COLOR_1":124
					},
					"indices":125,
					"material":17
				},
				{
					"attributes":{
						"POSITION":126,
						"NORMAL":127,
						"TEXCOORD_0":128,
						"TEXCOORD_1":129,
						"COLOR_0":130,
						"COLOR_1":131
					},
					"indices":132,
					"material":18
				},
				{
					"attributes":{
						"POSITION":133,
						"NORMAL":134,
						"TEXCOORD_0":135,
						"TEXCOORD_1":136,
						"COLOR_0":137,
						"COLOR_1":138
					},
					"indices":139,
					"material":19
				},
				{
					"attributes":{
						"POSITION":140,
						"NORMAL":141,
						"TEXCOORD_0":142,
						"TEXCOORD_1":143,
						"COLOR_0":144,
						"COLOR_1":145
					},
					"indices":146,
					"material":20
				},
				{
					"attributes":{
						"POSITION":147,
						"NORMAL":148,
						"TEXCOORD_0":149,
						"TEXCOORD_1":150,
						"COLOR_0":151,
						"COLOR_1":152
					},
					"indices":153,
					"material":21
				},
				{
					"attributes":{
						"POSITION":154,
						"NORMAL":155,
						"TEXCOORD_0":156,
						"TEXCOORD_1":157,
						"COLOR_0":158,
						"COLOR_1":159
					},
					"indices":160,
					"material":22
				},
				{
					"attributes":{
						"POSITION":161,
						"NORMAL":162,
						"TEXCOORD_0":163,
						"TEXCOORD_1":164,
						"COLOR_0":165,
						"COLOR_1":166
					},
					"indices":167,
					"material":23
				},
				{
					"attributes":{
						"POSITION":168,
						"NORMAL":169,
						"TEXCOORD_0":170,
						"TEXCOORD_1":171,
						"COLOR_0":172,
						"COLOR_1":173
					},
					"indices":174,
					"material":24
				},
				{
					"attributes":{
						"POSITION":175,
						"NORMAL":176,
						"TEXCOORD_0":177,
						"TEXCOORD_1":178,
						"COLOR_0":179,
						"COLOR_1":180
					},
					"indices":181,
					"material":25
				}
			]
		}
	],
	"textures":[
		{
			"sampler":0,
			"source":0
		},
		{
			"sampler":0,
			"source":1
		},
		{
			"sampler":0,
			"source":2
		}
	],
	"images":[
		{
			"mimeType":"image/png",
			"name":"laminate_floor_nor_gl_2k",
			"uri":"laminate_floor_nor_gl_2k.png"
		},
		{
			"mimeType":"image/jpeg",
			"name":"laminate_floor_diff_2k",
			"uri":"laminate_floor_diff_2k.jpg"
		},
		{
			"mimeType":"image/png",
			"name":"laminate_floor_rough_2k",
			"uri":"laminate_floor_rough_2k.png"
		}
	],
	"accessors":[
		{
			"bufferView":0,
			"componentType":5126,
			"count":201174,
			"max":[
				42.49117660522461,
				1.7984018325805664,
				67.66699981689453
			],
			"min":[
				-0.9999974370002747,
				-0.7865993976593018,
				-67.75611114501953
			],
			"type":"VEC3"
		},
		{
			"bufferView":1,
			"componentType":5126,
			"count":201174,
			"type":"VEC3"
		},
		{
			"bufferView":2,
			"componentType":5126,
			"count":201174,
			"type":"VEC2"
		},
		{
			"bufferView":3,
			"componentType":5126,
			"count":201174,
			"type":"VEC2"
		},
		{
			"bufferView":4,
			"componentType":5121,
			"count":201174,
			"normalized":true,
			"type":"VEC4"
		},
		{
			"bufferView":5,
			"componentType":5123,
			"count":201174,
			"normalized":true,
			"type":"VEC4"
		},
		{
			"bufferView":6,
			"componentType":5125,
			"count":1162104,
			"type":"SCALAR"
		},
		{
			"bufferView":7,
			"componentType":5126,
			"count":72,
			"max":[
				35.28852844238281,
				-0.7558150291442871,
				12.916041374206543
			],
			"min":[
				24.785717010498047,
				-1.1610785722732544,
				1.3325464725494385
			],
			"type":"VEC3"
		},
		{
			"bufferView":8,
			"componentType":5126,
			"count":72,
			"type":"VEC3"
		},
		{
			"bufferView":9,
			"componentType":5126,
			"count":72,
			"type":"VEC2"
		},
		{
			"bufferView":10,
			"componentType":5126,
			"count":72,
			"type":"VEC2"
		},
		{
			"bufferView":11,
			"componentType":5121,
			"count":72,
			"normalized":true,
			"type":"VEC4"
		},
		{
			"bufferView":12,
			"componentType":5123,
			"count":72,
			"normalized":true,
			"type":"VEC4"
		},
		{
			"bufferView":13,
			"componentType":5123,
			"count":252,
			"type":"SCALAR"
		},
		{
			"bufferView":14,
			"componentType":5126,
			"count":76,
			"max":[
				31.046430587768555,
				-0.7557443380355835,
				16.204683303833008
			],
			"min":[
				21.522228240966797,
				-1.2283172607421875,
				0.3590082824230194
			],
			"type":"VEC3"
		},
		{
			"bufferView":15,
			"componentType":5126,
			"count":76,
			"type":"VEC3"
		},
		{
			"bufferView":16,
			"componentType":5126,
			"count":76,
			"type":"VEC2"
		},
		{
			"bufferView":17,
			"componentType":5126,
			"count":76,
			"type":"VEC2"
		},
		{
			"bufferView":18,
			"componentType":5121,
			"count":76,
			"normalized":true,
			"type":"VEC4"
		},
		{
			"bufferView":19,
			"componentType":5123,
			"count":76,
			"normalized":true,
			"type":"VEC4"
		},
		{
			"bufferView":20,
			"componentType":5123,
			"count":258,
			"type":"SCALAR"
		},
		{
			"bufferView":21,
			"componentType":5126,
			"count":229296,
			"max":[
				42.387367248535156,
				1.7946176528930664,
				67.58885955810547
			],
			"min":[
				0.12056495249271393,
				-0.7961273789405823,
				-67.74510955810547
			],
			"type":"VEC3"
		},
		{
			"bufferView":22,
			"componentType":5126,
			"count":229296,
			"type":"VEC3"
		},
		{
			"bufferView":23,
			"componentType":5126,
			"count":229296,
			"type":"VEC2"
		},
		{
			"bufferView":24,
			"componentType":5126,
			"count":229296,
			"type":"VEC2"
		},
		{
			"bufferView":25,
			"componentType":5121,
			"count":229296,
			"normalized":true,
			"type":"VEC4"
		},
		{
			"bufferView":26,
			"componentType":5123,
			"count":229296,
			"normalized":true,
			"type":"VEC4"
		},
		{
			"bufferView":27,
			"componentType":5125,
			"count":1335750,
			"type":"SCALAR"
		},
		{
			"bufferView":28,
			"componentType":5126,
			"count":247968,
			"max":[
				42.523826599121094,
				1.7939647436141968,
				67.77479553222656
			],
			"min":[
				-1.0046578645706177,
				-0.7967740893363953,
				-67.82830047607422
			],
			"type":"VEC3"
		},
		{
			"bufferView":29,
			"componentType":5126,
			"count":247968,
			"type":"VEC3"
		},
		{
			"bufferView":30,
			"componentType":5126,
			"count":247968,
			"type":"VEC2"
		},
		{
			"bufferView":31,
			"componentType":5126,
			"count":247968,
			"type":"VEC2"
		},
		{
			"bufferView":32,
			"componentType":5121,
			"count":247968,
			"normalized":true,
			"type":"VEC4"
		},
		{
			"bufferView":33,
			"componentType":5123,
			"count":247968,
			"normalized":true,
			"type":"VEC4"
		},
		{
			"bufferView":34,
			"componentType":5125,
			"count":1441638,
			"type":"SCALAR"
		},
		{
			"bufferView":35,
			"componentType":5126,
			"count":174,
			"max":[
				41.03014373779297,
				1.0843942165374756,
				66.13741302490234
			],
			"min":[
				37.191768646240234,
				-0.7354524731636047,
				16.13717269897461
			],
			"type":"VEC3"
		},
		{
			"bufferView":36,
			"componentType":5126,
			"count":174,
			"type":"VEC3"
		},
		{
			"bufferView":37,
			"componentType":5126,
			"count":174,
			"type":"VEC2"
		},
		{
			"bufferView":38,
			"componentType":5126,
			"count":174,
			"type":"VEC2"
		},
		{
			"bufferView":39,
			"componentType":5121,
			"count":174,
			"normalized":true,
			"type":"VEC4"
		},
		{
			"bufferView":40,
			"componentType":5123,
			"count":174,
			"normalized":true,
			"type":"VEC4"
		},
		{
			"bufferView":41,
			"componentType":5123,
			"count":330,
			"type":"SCALAR"
		},
		{
			"bufferView":42,
			"componentType":5126,
			"count":292296,
			"max":[
				41.957725524902344,
				1.7578080892562866,
				64.81095886230469
			],
			"min":[
				3.1012332439422607,
				-0.7613352537155151,
				-66.43809509277344
			],
			"type":"VEC3"
		},
		{
			"bufferView":43,
			"componentType":5126,
			"count":292296,
			"type":"VEC3"
		},
		{
			"bufferView":44,
			"componentType":5126,
			"count":292296,
			"type":"VEC2"
		},
		{
			"bufferView":45,
			"componentType":5126,
			"count":292296,
			"type":"VEC2"
		},
		{
			"bufferView":46,
			"componentType":5121,
			"count":292296,
			"normalized":true,
			"type":"VEC4"
		},
		{
			"bufferView":47,
			"componentType":5123,
			"count":292296,
			"normalized":true,
			"type":"VEC4"
		},
		{
			"bufferView":48,
			"componentType":5125,
			"count":1743768,
			"type":"SCALAR"
		},
		{
			"bufferView":49,
			"componentType":5126,
			"count":155,
			"max":[
				41.957725524902344,
				1.7578065395355225,
				66.90416717529297
			],
			"min":[
				19.714458465576172,
				-0.761338472366333,
				-66.88386535644531
			],
			"type":"VEC3"
		},
		{
			"bufferView":50,
			"componentType":5126,
			"count":155,
			"type":"VEC3"
		},
		{
			"bufferView":51,
			"componentType":5126,
			"count":155,
			"type":"VEC2"
		},
		{
			"bufferView":52,
			"componentType":5126,
			"count":155,
			"type":"VEC2"
		},
		{
			"bufferView":53,
			"componentType":5121,
			"count":155,
			"normalized":true,
			"type":"VEC4"
		},
		{
			"bufferView":54,
			"componentType":5123,
			"count":155,
			"normalized":true,
			"type":"VEC4"
		},
		{
			"bufferView":55,
			"componentType":5123,
			"count":264,
			"type":"SCALAR"
		},
		{
			"bufferView":56,
			"componentType":5126,
			"count":469,
			"max":[
				42.652549743652344,
				-0.12637265026569366,
				-49.65860366821289
			],
			"min":[
				-0.9447960257530212,
				-0.7515559792518616,
				-67.09164428710938
			],
			"type":"VEC3"
		},
		{
			"bufferView":57,
			"componentType":5126,
			"count":469,
			"type":"VEC3"
		},
		{
			"bufferView":58,
			"componentType":5126,
			"count":469,
			"type":"VEC2"
		},
		{
			"bufferView":59,
			"componentType":5126,
			"count":469,
			"type":"VEC2"
		},
		{
			"bufferView":60,
			"componentType":5121,
			"count":469,
			"normalized":true,
			"type":"VEC4"
		},
		{
			"bufferView":61,
			"componentType":5123,
			"count":469,
			"normalized":true,
			"type":"VEC4"
		},
		{
			"bufferView":62,
			"componentType":5123,
			"count":2364,
			"type":"SCALAR"
		},
		{
			"bufferView":63,
			"componentType":5126,
			"count":132,
			"max":[
				37.935428619384766,
				-0.395953893661499,
				-58.1148796081543
			],
			"min":[
				0.46713775396347046,
				-0.43903884291648865,
				-59.2568359375
			],
			"type":"VEC3"
		},
		{
			"bufferView":64,
			"componentType":5126,
			"count":132,
			"type":"VEC3"
		},
		{
			"bufferView":65,
			"componentType":5126,
			"count":132,
			"type":"VEC2"
		},
		{
			"bufferView":66,
			"componentType":5126,
			"count":132,
			"type":"VEC2"
		},
		{
			"bufferView":67,
			"componentType":5121,
			"count":132,
			"normalized":true,
			"type":"VEC4"
		},
		{
			"bufferView":68,
			"componentType":5123,
			"count":132,
			"normalized":true,
			"type":"VEC4"
		},
		{
			"bufferView":69,
			"componentType":5123,
			"count":780,
			"type":"SCALAR"
		},
		{
			"bufferView":70,
			"componentType":5126,
			"count":128,
			"max":[
				25.400894165039062,
				1.5095233917236328,
				33.44123840332031
			],
			"min":[
				0.3554467558860779,
				-0.19210757315158844,
				-35.30996322631836
			],
			"type":"VEC3"
		},
		{
			"bufferView":71,
			"componentType":5126,
			"count":128,
			"type":"VEC3"
		},
		{
			"bufferView":72,
			"componentType":5126,
			"count":128,
			"type":"VEC2"
		},
		{
			"bufferView":73,
			"componentType":5126,
			"count":128,
			"type":"VEC2"
		},
		{
			"bufferView":74,
			"componentType":5121,
			"count":128,
			"normalized":true,
			"type":"VEC4"
		},
		{
			"bufferView":75,
			"componentType":5123,
			"count":128,
			"normalized":true,
			"type":"VEC4"
		},
		{
			"bufferView":76,
			"componentType":5123,
			"count":672,
			"type":"SCALAR"
		},
		{
			"bufferView":77,
			"componentType":5126,
			"count":640,
			"max":[
				25.014827728271484,
				1.6459704637527466,
				18.94383430480957
			],
			"min":[
				0.35522741079330444,
				-0.6470794081687927,
				-47.49277114868164
			],
			"type":"VEC3"
		},
		{
			"bufferView":78,
			"componentType":5126,
			"count":640,
			"type":"VEC3"
		},
		{
			"bufferView":79,
			"componentType":5126,
			"count":640,
			"type":"VEC2"
		},
		{
			"bufferView":80,
			"componentType":5126,
			"count":640,
			"type":"VEC2"
		},
		{
			"bufferView":81,
			"componentType":5121,
			"count":640,
			"normalized":true,
			"type":"VEC4"
		},
		{
			"bufferView":82,
			"componentType":5123,
			"count":640,
			"normalized":true,
			"type":"VEC4"
		},
		{
			"bufferView":83,
			"componentType":5123,
			"count":3360,
			"type":"SCALAR"
		},
		{
			"bufferView":84,
			"componentType":5126,
			"count":1152,
			"max":[
				35.152679443359375,
				1.7550898790359497,
				17.113136291503906
			],
			"min":[
				26.333717346191406,
				-0.7532877326011658,
				-33.63272476196289
			],
			"type":"VEC3"
		},
		{
			"bufferView":85,
			"componentType":5126,
			"count":1152,
			"type":"VEC3"
		},
		{
			"bufferView":86,
			"componentType":5126,
			"count":1152,
			"type":"VEC2"
		},
		{
			"bufferView":87,
			"componentType":5126,
			"count":1152,
			"type":"VEC2"
		},
		{
			"bufferView":88,
			"componentType":5121,
			"count":1152,
			"normalized":true,
			"type":"VEC4"
		},
		{
			"bufferView":89,
			"componentType":5123,
			"count":1152,
			"normalized":true,
			"type":"VEC4"
		},
		{
			"bufferView":90,
			"componentType":5123,
			"count":5076,
			"type":"SCALAR"
		},
		{
			"bufferView":91,
			"componentType":5126,
			"count":15466,
			"max":[
				35.94651412963867,
				1.5146756172180176,
				55.03559494018555
			],
			"min":[
				20.962413787841797,
				-0.3073520362377167,
				-55.02289962768555
			],
			"type":"VEC3"
		},
		{
			"bufferView":92,
			"componentType":5126,
			"count":15466,
			"type":"VEC3"
		},
		{
			"bufferView":93,
			"componentType":5126,
			"count":15466,
			"type":"VEC2"
		},
		{
			"bufferView":94,
			"componentType":5126,
			"count":15466,
			"type":"VEC2"
		},
		{
			"bufferView":95,
			"componentType":5121,
			"count":15466,
			"normalized":true,
			"type":"VEC4"
		},
		{
			"bufferView":96,
			"componentType":5123,
			"count":15466,
			"normalized":true,
			"type":"VEC4"
		},
		{
			"bufferView":97,
			"componentType":5123,
			"count":25128,
			"type":"SCALAR"
		},
		{
			"bufferView":98,
			"componentType":5126,
			"count":684,
			"max":[
				40.697669982910156,
				0.4917263686656952,
				-0.30432602763175964
			],
			"min":[
				21.30251121520996,
				0.48401114344596863,
				-17.0120792388916
			],
			"type":"VEC3"
		},
		{
			"bufferView":99,
			"componentType":5126,
			"count":684,
			"type":"VEC3"
		},
		{
			"bufferView":100,
			"componentType":5126,
			"count":684,
			"type":"VEC2"
		},
		{
			"bufferView":101,
			"componentType":5126,
			"count":684,
			"type":"VEC2"
		},
		{
			"bufferView":102,
			"componentType":5121,
			"count":684,
			"normalized":true,
			"type":"VEC4"
		},
		{
			"bufferView":103,
			"componentType":5123,
			"count":684,
			"normalized":true,
			"type":"VEC4"
		},
		{
			"bufferView":104,
			"componentType":5123,
			"count":4560,
			"type":"SCALAR"
		},
		{
			"bufferView":105,
			"componentType":5126,
			"count":637,
			"max":[
				36.35056686401367,
				0.5061724185943604,
				-2.782799005508423
			],
			"min":[
				24.599824905395508,
				0.46956515312194824,
				-14.533541679382324
			],
			"type":"VEC3"
		},
		{
			"bufferView":106,
			"componentType":5126,
			"count":637,
			"type":"VEC3"
		},
		{
			"bufferView":107,
			"componentType":5126,
			"count":637,
			"type":"VEC2"
		},
		{
			"bufferView":108,
			"componentType":5126,
			"count":637,
			"type":"VEC2"
		},
		{
			"bufferView":109,
			"componentType":5121,
			"count":637,
			"normalized":true,
			"type":"VEC4"
		},
		{
			"bufferView":110,
			"componentType":5123,
			"count":637,
			"normalized":true,
			"type":"VEC4"
		},
		{
			"bufferView":111,
			"componentType":5123,
			"count":3456,
			"type":"SCALAR"
		},
		{
			"bufferView":112,
			"componentType":5126,
			"count":3156,
			"max":[
				22.056814193725586,
				0.17636136710643768,
				-23.026586532592773
			],
			"min":[
				17.6742000579834,
				-0.4844401776790619,
				-43.34450912475586
			],
			"type":"VEC3"
		},
		{
			"bufferView":113,
			"componentType":5126,
			"count":3156,
			"type":"VEC3"
		},
		{
			"bufferView":114,
			"componentType":5126,
			"count":3156,
			"type":"VEC2"
		},
		{
			"bufferView":115,
			"componentType":5126,
			"count":3156,
			"type":"VEC2"
		},
		{
			"bufferView":116,
			"componentType":5121,
			"count":3156,
			"normalized":true,
			"type":"VEC4"
		},
		{
			"bufferView":117,
			"componentType":5123,
			"count":3156,
			"normalized":true,
			"type":"VEC4"
		},
		{
			"bufferView":118,
			"componentType":5123,
			"count":18924,
			"type":"SCALAR"
		},
		{
			"bufferView":119,
			"componentType":5126,
			"count":826,
			"max":[
				21.005115509033203,
				0.6525591015815735,
				-22.7036190032959
			],
			"min":[
				8.280973434448242,
				0.20985642075538635,
				-43.49236297607422
			],
			"type":"VEC3"
		},
		{
			"bufferView":120,
			"componentType":5126,
			"count":826,
			"type":"VEC3"
		},
		{
			"bufferView":121,
			"componentType":5126,
			"count":826,
			"type":"VEC2"
		},
		{
			"bufferView":122,
			"componentType":5126,
			"count":826,
			"type":"VEC2"
		},
		{
			"bufferView":123,
			"componentType":5121,
			"count":826,
			"normalized":true,
			"type":"VEC4"
		},
		{
			"bufferView":124,
			"componentType":5123,
			"count":826,
			"normalized":true,
			"type":"VEC4"
		},
		{
			"bufferView":125,
			"componentType":5123,
			"count":1248,
			"type":"SCALAR"
		},
		{
			"bufferView":126,
			"componentType":5126,
			"count":50,
			"max":[
				21.005115509033203,
				0.6525591015815735,
				-22.703636169433594
			],
			"min":[
				8.45744514465332,
				0.22248367965221405,
				-43.49236297607422
			],
			"type":"VEC3"
		},
		{
			"bufferView":127,
			"componentType":5126,
			"count":50,
			"type":"VEC3"
		},
		{
			"bufferView":128,
			"componentType":5126,
			"count":50,
			"type":"VEC2"
		},
		{
			"bufferView":129,
			"componentType":5126,
			"count":50,
			"type":"VEC2"
		},
		{
			"bufferView":130,
			"componentType":5121,
			"count":50,
			"normalized":true,
			"type":"VEC4"
		},
		{
			"bufferView":131,
			"componentType":5123,
			"count":50,
			"normalized":true,
			"type":"VEC4"
		},
		{
			"bufferView":132,
			"componentType":5123,
			"count":84,
			"type":"SCALAR"
		},
		{
			"bufferView":133,
			"componentType":5126,
			"count":2286,
			"max":[
				18.24452018737793,
				0.6814129948616028,
				-25.744176864624023
			],
			"min":[
				9.573343276977539,
				0.4421352446079254,
				-40.99397277832031
			],
			"type":"VEC3"
		},
		{
			"bufferView":134,
			"componentType":5126,
			"count":2286,
			"type":"VEC3"
		},
		{
			"bufferView":135,
			"componentType":5126,
			"count":2286,
			"type":"VEC2"
		},
		{
			"bufferView":136,
			"componentType":5126,
			"count":2286,
			"type":"VEC2"
		},
		{
			"bufferView":137,
			"componentType":5121,
			"count":2286,
			"normalized":true,
			"type":"VEC4"
		},
		{
			"bufferView":138,
			"componentType":5123,
			"count":2286,
			"normalized":true,
			"type":"VEC4"
		},
		{
			"bufferView":139,
			"componentType":5123,
			"count":3456,
			"type":"SCALAR"
		},
		{
			"bufferView":140,
			"componentType":5126,
			"count":1524,
			"max":[
				16.941675186157227,
				0.6487240195274353,
				-28.66261863708496
			],
			"min":[
				10.774347305297852,
				0.4722568094730377,
				-40.99406433105469
			],
			"type":"VEC3"
		},
		{
			"bufferView":141,
			"componentType":5126,
			"count":1524,
			"type":"VEC3"
		},
		{
			"bufferView":142,
			"componentType":5126,
			"count":1524,
			"type":"VEC2"
		},
		{
			"bufferView":143,
			"componentType":5126,
			"count":1524,
			"type":"VEC2"
		},
		{
			"bufferView":144,
			"componentType":5121,
			"count":1524,
			"normalized":true,
			"type":"VEC4"
		},
		{
			"bufferView":145,
			"componentType":5123,
			"count":1524,
			"normalized":true,
			"type":"VEC4"
		},
		{
			"bufferView":146,
			"componentType":5123,
			"count":2304,
			"type":"SCALAR"
		},
		{
			"bufferView":147,
			"componentType":5126,
			"count":1516,
			"max":[
				13.236822128295898,
				0.5557919144630432,
				-25.744272232055664
			],
			"min":[
				8.270498275756836,
				0.40944626927375793,
				-40.9937858581543
			],
			"type":"VEC3"
		},
		{
			"bufferView":148,
			"componentType":5126,
			"count":1516,
			"type":"VEC3"
		},
		{
			"bufferView":149,
			"componentType":5126,
			"count":1516,
			"type":"VEC2"
		},
		{
			"bufferView":150,
			"componentType":5126,
			"count":1516,
			"type":"VEC2"
		},
		{
			"bufferView":151,
			"componentType":5121,
			"count":1516,
			"normalized":true,
			"type":"VEC4"
		},
		{
			"bufferView":152,
			"componentType":5123,
			"count":1516,
			"normalized":true,
			"type":"VEC4"
		},
		{
			"bufferView":153,
			"componentType":5123,
			"count":2292,
			"type":"SCALAR"
		},
		{
			"bufferView":154,
			"componentType":5126,
			"count":576,
			"max":[
				20.65392303466797,
				1.665719985961914,
				-27.875856399536133
			],
			"min":[
				17.804672241210938,
				0.899590253829956,
				-38.77747344970703
			],
			"type":"VEC3"
		},
		{
			"bufferView":155,
			"componentType":5126,
			"count":576,
			"type":"VEC3"
		},
		{
			"bufferView":156,
			"componentType":5126,
			"count":576,
			"type":"VEC2"
		},
		{
			"bufferView":157,
			"componentType":5126,
			"count":576,
			"type":"VEC2"
		},
		{
			"bufferView":158,
			"componentType":5121,
			"count":576,
			"normalized":true,
			"type":"VEC4"
		},
		{
			"bufferView":159,
			"componentType":5123,
			"count":576,
			"normalized":true,
			"type":"VEC4"
		},
		{
			"bufferView":160,
			"componentType":5123,
			"count":3420,
			"type":"SCALAR"
		},
		{
			"bufferView":161,
			"componentType":5126,
			"count":576,
			"max":[
				20.65394401550293,
				1.6657215356826782,
				-24.350107192993164
			],
			"min":[
				17.804668426513672,
				0.8995916843414307,
				-41.48273468017578
			],
			"type":"VEC3"
		},
		{
			"bufferView":162,
			"componentType":5126,
			"count":576,
			"type":"VEC3"
		},
		{
			"bufferView":163,
			"componentType":5126,
			"count":576,
			"type":"VEC2"
		},
		{
			"bufferView":164,
			"componentType":5126,
			"count":576,
			"type":"VEC2"
		},
		{
			"bufferView":165,
			"componentType":5121,
			"count":576,
			"normalized":true,
			"type":"VEC4"
		},
		{
			"bufferView":166,
			"componentType":5123,
			"count":576,
			"normalized":true,
			"type":"VEC4"
		},
		{
			"bufferView":167,
			"componentType":5123,
			"count":3420,
			"type":"SCALAR"
		},
		{
			"bufferView":168,
			"componentType":5126,
			"count":1855,
			"max":[
				18.867841720581055,
				0.9417082071304321,
				-51.67784118652344
			],
			"min":[
				7.264010429382324,
				0.4726693630218506,
				-61.5638542175293
			],
			"type":"VEC3"
		},
		{
			"bufferView":169,
			"componentType":5126,
			"count":1855,
			"type":"VEC3"
		},
		{
			"bufferView":170,
			"componentType":5126,
			"count":1855,
			"type":"VEC2"
		},
		{
			"bufferView":171,
			"componentType":5126,
			"count":1855,
			"type":"VEC2"
		},
		{
			"bufferView":172,
			"componentType":5121,
			"count":1855,
			"normalized":true,
			"type":"VEC4"
		},
		{
			"bufferView":173,
			"componentType":5123,
			"count":1855,
			"normalized":true,
			"type":"VEC4"
		},
		{
			"bufferView":174,
			"componentType":5123,
			"count":2784,
			"type":"SCALAR"
		},
		{
			"bufferView":175,
			"componentType":5126,
			"count":1855,
			"max":[
				18.867841720581055,
				0.44838497042655945,
				-51.21739196777344
			],
			"min":[
				7.264010429382324,
				-0.020653849467635155,
				-61.10340118408203
			],
			"type":"VEC3"
		},
		{
			"bufferView":176,
			"componentType":5126,
			"count":1855,
			"type":"VEC3"
		},
		{
			"bufferView":177,
			"componentType":5126,
			"count":1855,
			"type":"VEC2"
		},
		{
			"bufferView":178,
			"componentType":5126,
			"count":1855,
			"type":"VEC2"
		},
		{
			"bufferView":179,
			"componentType":5121,
			"count":1855,
			"normalized":true,
			"type":"VEC4"
		},
		{
			"bufferView":180,
			"componentType":5123,
			"count":1855,
			"normalized":true,
			"type":"VEC4"
		},
		{
			"bufferView":181,
			"componentType":5123,
			"count":2784,
			"type":"SCALAR"
		}
	],
	"bufferViews":[
		{
			"buffer":0,
			"byteLength":2414088,
			"byteOffset":0,
			"target":34962
		},
		{
			"buffer":0,
			"byteLength":2414088,
			"byteOffset":2414088,
			"target":34962
		},
		{
			"buffer":0,
			"byteLength":1609392,
			"byteOffset":4828176,
			"target":34962
		},
		{
			"buffer":0,
			"byteLength":1609392,
			"byteOffset":6437568,
			"target":34962
		},
		{
			"buffer":0,
			"byteLength":804696,
			"byteOffset":8046960,
			"target":34962
		},
		{
			"buffer":0,
			"byteLength":1609392,
			"byteOffset":8851656,
			"target":34962
		},
		{
			"buffer":0,
			"byteLength":4648416,
			"byteOffset":10461048,
			"target":34963
		},
		{
			"buffer":0,
			"byteLength":864,
			"byteOffset":15109464,
			"target":34962
		},
		{
			"buffer":0,
			"byteLength":864,
			"byteOffset":15110328,
			"target":34962
		},
		{
			"buffer":0,
			"byteLength":576,
			"byteOffset":15111192,
			"target":34962
		},
		{
			"buffer":0,
			"byteLength":576,
			"byteOffset":15111768,
			"target":34962
		},
		{
			"buffer":0,
			"byteLength":288,
			"byteOffset":15112344,
			"target":34962
		},
		{
			"buffer":0,
			"byteLength":576,
			"byteOffset":15112632,
			"target":34962
		},
		{
			"buffer":0,
			"byteLength":504,
			"byteOffset":15113208,
			"target":34963
		},
		{
			"buffer":0,
			"byteLength":912,
			"byteOffset":15113712,
			"target":34962
		},
		{
			"buffer":0,
			"byteLength":912,
			"byteOffset":15114624,
			"target":34962
		},
		{
			"buffer":0,
			"byteLength":608,
			"byteOffset":15115536,
			"target":34962
		},
		{
			"buffer":0,
			"byteLength":608,
			"byteOffset":15116144,
			"target":34962
		},
		{
			"buffer":0,
			"byteLength":304,
			"byteOffset":15116752,
			"target":34962
		},
		{
			"buffer":0,
			"byteLength":608,
			"byteOffset":15117056,
			"target":34962
		},
		{
			"buffer":0,
			"byteLength":516,
			"byteOffset":15117664,
			"target":34963
		},
		{
			"buffer":0,
			"byteLength":2751552,
			"byteOffset":15118180,
			"target":34962
		},
		{
			"buffer":0,
			"byteLength":2751552,
			"byteOffset":17869732,
			"target":34962
		},
		{
			"buffer":0,
			"byteLength":1834368,
			"byteOffset":20621284,
			"target":34962
		},
		{
			"buffer":0,
			"byteLength":1834368,
			"byteOffset":22455652,
			"target":34962
		},
		{
			"buffer":0,
			"byteLength":917184,
			"byteOffset":24290020,
			"target":34962
		},
		{
			"buffer":0,
			"byteLength":1834368,
			"byteOffset":25207204,
			"target":34962
		},
		{
			"buffer":0,
			"byteLength":5343000,
			"byteOffset":27041572,
			"target":34963
		},
		{
			"buffer":0,
			"byteLength":2975616,
			"byteOffset":32384572,
			"target":34962
		},
		{
			"buffer":0,
			"byteLength":2975616,
			"byteOffset":35360188,
			"target":34962
		},
		{
			"buffer":0,
			"byteLength":1983744,
			"byteOffset":38335804,
			"target":34962
		},
		{
			"buffer":0,
			"byteLength":1983744,
			"byteOffset":40319548,
			"target":34962
		},
		{
			"buffer":0,
			"byteLength":991872,
			"byteOffset":42303292,
			"target":34962
		},
		{
			"buffer":0,
			"byteLength":1983744,
			"byteOffset":43295164,
			"target":34962
		},
		{
			"buffer":0,
			"byteLength":5766552,
			"byteOffset":45278908,
			"target":34963
		},
		{
			"buffer":0,
			"byteLength":2088,
			"byteOffset":51045460,
			"target":34962
		},
		{
			"buffer":0,
			"byteLength":2088,
			"byteOffset":51047548,
			"target":34962
		},
		{
			"buffer":0,
			"byteLength":1392,
			"byteOffset":51049636,
			"target":34962
		},
		{
			"buffer":0,
			"byteLength":1392,
			"byteOffset":51051028,
			"target":34962
		},
		{
			"buffer":0,
			"byteLength":696,
			"byteOffset":51052420,
			"target":34962
		},
		{
			"buffer":0,
			"byteLength":1392,
			"byteOffset":51053116,
			"target":34962
		},
		{
			"buffer":0,
			"byteLength":660,
			"byteOffset":51054508,
			"target":34963
		},
		{
			"buffer":0,
			"byteLength":3507552,
			"byteOffset":51055168,
			"target":34962
		},
		{
			"buffer":0,
			"byteLength":3507552,
			"byteOffset":54562720,
			"target":34962
		},
		{
			"buffer":0,
			"byteLength":2338368,
			"byteOffset":58070272,
			"target":34962
		},
		{
			"buffer":0,
			"byteLength":2338368,
			"byteOffset":60408640,
			"target":34962
		},
		{
			"buffer":0,
			"byteLength":1169184,
			"byteOffset":62747008,
			"target":34962
		},
		{
			"buffer":0,
			"byteLength":2338368,
			"byteOffset":63916192,
			"target":34962
		},
		{
			"buffer":0,
			"byteLength":6975072,
			"byteOffset":66254560,
			"target":34963
		},
		{
			"buffer":0,
			"byteLength":1860,
			"byteOffset":73229632,
			"target":34962
		},
		{
			"buffer":0,
			"byteLength":1860,
			"byteOffset":73231492,
			"target":34962
		},
		{
			"buffer":0,
			"byteLength":1240,
			"byteOffset":73233352,
			"target":34962
		},
		{
			"buffer":0,
			"byteLength":1240,
			"byteOffset":73234592,
			"target":34962
		},
		{
			"buffer":0,
			"byteLength":620,
			"byteOffset":73235832,
			"target":34962
		},
		{
			"buffer":0,
			"byteLength":1240,
			"byteOffset":73236452,
			"target":34962
		},
		{
			"buffer":0,
			"byteLength":528,
			"byteOffset":73237692,
			"target":34963
		},
		{
			"buffer":0,
			"byteLength":5628,
			"byteOffset":73238220,
			"target":34962
		},
		{
			"buffer":0,
			"byteLength":5628,
			"byteOffset":73243848,
			"target":34962
		},
		{
			"buffer":0,
			"byteLength":3752,
			"byteOffset":73249476,
			"target":34962
		},
		{
			"buffer":0,
			"byteLength":3752,
			"byteOffset":73253228,
			"target":34962
		},
		{
			"buffer":0,
			"byteLength":1876,
			"byteOffset":73256980,
			"target":34962
		},
		{
			"buffer":0,
			"byteLength":3752,
			"byteOffset":73258856,
			"target":34962
		},
		{
			"buffer":0,
			"byteLength":4728,
			"byteOffset":73262608,
			"target":34963
		},
		{
			"buffer":0,
			"byteLength":1584,
			"byteOffset":73267336,
			"target":34962
		},
		{
			"buffer":0,
			"byteLength":1584,
			"byteOffset":73268920,
			"target":34962
		},
		{
			"buffer":0,
			"byteLength":1056,
			"byteOffset":73270504,
			"target":34962
		},
		{
			"buffer":0,
			"byteLength":1056,
			"byteOffset":73271560,
			"target":34962
		},
		{
			"buffer":0,
			"byteLength":528,
			"byteOffset":73272616,
			"target":34962
		},
		{
			"buffer":0,
			"byteLength":1056,
			"byteOffset":73273144,
			"target":34962
		},
		{
			"buffer":0,
			"byteLength":1560,
			"byteOffset":73274200,
			"target":34963
		},
		{
			"buffer":0,
			"byteLength":1536,
			"byteOffset":73275760,
			"target":34962
		},
		{
			"buffer":0,
			"byteLength":1536,
			"byteOffset":73277296,
			"target":34962
		},
		{
			"buffer":0,
			"byteLength":1024,
			"byteOffset":73278832,
			"target":34962
		},
		{
			"buffer":0,
			"byteLength":1024,
			"byteOffset":73279856,
			"target":34962
		},
		{
			"buffer":0,
			"byteLength":512,
			"byteOffset":73280880,
			"target":34962
		},
		{
			"buffer":0,
			"byteLength":1024,
			"byteOffset":73281392,
			"target":34962
		},
		{
			"buffer":0,
			"byteLength":1344,
			"byteOffset":73282416,
			"target":34963
		},
		{
			"buffer":0,
			"byteLength":7680,
			"byteOffset":73283760,
			"target":34962
		},
		{
			"buffer":0,
			"byteLength":7680,
			"byteOffset":73291440,
			"target":34962
		},
		{
			"buffer":0,
			"byteLength":5120,
			"byteOffset":73299120,
			"target":34962
		},
		{
			"buffer":0,
			"byteLength":5120,
			"byteOffset":73304240,
			"target":34962
		},
		{
			"buffer":0,
			"byteLength":2560,
			"byteOffset":73309360,
			"target":34962
		},
		{
			"buffer":0,
			"byteLength":5120,
			"byteOffset":73311920,
			"target":34962
		},
		{
			"buffer":0,
			"byteLength":6720,
			"byteOffset":73317040,
			"target":34963
		},
		{
			"buffer":0,
			"byteLength":13824,
			"byteOffset":73323760,
			"target":34962
		},
		{
			"buffer":0,
			"byteLength":13824,
			"byteOffset":73337584,
			"target":34962
		},
		{
			"buffer":0,
			"byteLength":9216,
			"byteOffset":73351408,
			"target":34962
		},
		{
			"buffer":0,
			"byteLength":9216,
			"byteOffset":73360624,
			"target":34962
		},
		{
			"buffer":0,
			"byteLength":4608,
			"byteOffset":73369840,
			"target":34962
		},
		{
			"buffer":0,
			"byteLength":9216,
			"byteOffset":73374448,
			"target":34962
		},
		{
			"buffer":0,
			"byteLength":10152,
			"byteOffset":73383664,
			"target":34963
		},
		{
			"buffer":0,
			"byteLength":185592,
			"byteOffset":73393816,
			"target":34962
		},
		{
			"buffer":0,
			"byteLength":185592,
			"byteOffset":73579408,
			"target":34962
		},
		{
			"buffer":0,
			"byteLength":123728,
			"byteOffset":73765000,
			"target":34962
		},
		{
			"buffer":0,
			"byteLength":123728,
			"byteOffset":73888728,
			"target":34962
		},
		{
			"buffer":0,
			"byteLength":61864,
			"byteOffset":74012456,
			"target":34962
		},
		{
			"buffer":0,
			"byteLength":123728,
			"byteOffset":74074320,
			"target":34962
		},
		{
			"buffer":0,
			"byteLength":50256,
			"byteOffset":74198048,
			"target":34963
		},
		{
			"buffer":0,
			"byteLength":8208,
			"byteOffset":74248304,
			"target":34962
		},
		{
			"buffer":0,
			"byteLength":8208,
			"byteOffset":74256512,
			"target":34962
		},
		{
			"buffer":0,
			"byteLength":5472,
			"byteOffset":74264720,
			"target":34962
		},
		{
			"buffer":0,
			"byteLength":5472,
			"byteOffset":74270192,
			"target":34962
		},
		{
			"buffer":0,
			"byteLength":2736,
			"byteOffset":74275664,
			"target":34962
		},
		{
			"buffer":0,
			"byteLength":5472,
			"byteOffset":74278400,
			"target":34962
		},
		{
			"buffer":0,
			"byteLength":9120,
			"byteOffset":74283872,
			"target":34963
		},
		{
			"buffer":0,
			"byteLength":7644,
			"byteOffset":74292992,
			"target":34962
		},
		{
			"buffer":0,
			"byteLength":7644,
			"byteOffset":74300636,
			"target":34962
		},
		{
			"buffer":0,
			"byteLength":5096,
			"byteOffset":74308280,
			"target":34962
		},
		{
			"buffer":0,
			"byteLength":5096,
			"byteOffset":74313376,
			"target":34962
		},
		{
			"buffer":0,
			"byteLength":2548,
			"byteOffset":74318472,
			"target":34962
		},
		{
			"buffer":0,
			"byteLength":5096,
			"byteOffset":74321020,
			"target":34962
		},
		{
			"buffer":0,
			"byteLength":6912,
			"byteOffset":74326116,
			"target":34963
		},
		{
			"buffer":0,
			"byteLength":37872,
			"byteOffset":74333028,
			"target":34962
		},
		{
			"buffer":0,
			"byteLength":37872,
			"byteOffset":74370900,
			"target":34962
		},
		{
			"buffer":0,
			"byteLength":25248,
			"byteOffset":74408772,
			"target":34962
		},
		{
			"buffer":0,
			"byteLength":25248,
			"byteOffset":74434020,
			"target":34962
		},
		{
			"buffer":0,
			"byteLength":12624,
			"byteOffset":74459268,
			"target":34962
		},
		{
			"buffer":0,
			"byteLength":25248,
			"byteOffset":74471892,
			"target":34962
		},
		{
			"buffer":0,
			"byteLength":37848,
			"byteOffset":74497140,
			"target":34963
		},
		{
			"buffer":0,
			"byteLength":9912,
			"byteOffset":74534988,
			"target":34962
		},
		{
			"buffer":0,
			"byteLength":9912,
			"byteOffset":74544900,
			"target":34962
		},
		{
			"buffer":0,
			"byteLength":6608,
			"byteOffset":74554812,
			"target":34962
		},
		{
			"buffer":0,
			"byteLength":6608,
			"byteOffset":74561420,
			"target":34962
		},
		{
			"buffer":0,
			"byteLength":3304,
			"byteOffset":74568028,
			"target":34962
		},
		{
			"buffer":0,
			"byteLength":6608,
			"byteOffset":74571332,
			"target":34962
		},
		{
			"buffer":0,
			"byteLength":2496,
			"byteOffset":74577940,
			"target":34963
		},
		{
			"buffer":0,
			"byteLength":600,
			"byteOffset":74580436,
			"target":34962
		},
		{
			"buffer":0,
			"byteLength":600,
			"byteOffset":74581036,
			"target":34962
		},
		{
			"buffer":0,
			"byteLength":400,
			"byteOffset":74581636,
			"target":34962
		},
		{
			"buffer":0,
			"byteLength":400,
			"byteOffset":74582036,
			"target":34962
		},
		{
			"buffer":0,
			"byteLength":200,
			"byteOffset":74582436,
			"target":34962
		},
		{
			"buffer":0,
			"byteLength":400,
			"byteOffset":74582636,
			"target":34962
		},
		{
			"buffer":0,
			"byteLength":168,
			"byteOffset":74583036,
			"target":34963
		},
		{
			"buffer":0,
			"byteLength":27432,
			"byteOffset":74583204,
			"target":34962
		},
		{
			"buffer":0,
			"byteLength":27432,
			"byteOffset":74610636,
			"target":34962
		},
		{
			"buffer":0,
			"byteLength":18288,
			"byteOffset":74638068,
			"target":34962
		},
		{
			"buffer":0,
			"byteLength":18288,
			"byteOffset":74656356,
			"target":34962
		},
		{
			"buffer":0,
			"byteLength":9144,
			"byteOffset":74674644,
			"target":34962
		},
		{
			"buffer":0,
			"byteLength":18288,
			"byteOffset":74683788,
			"target":34962
		},
		{
			"buffer":0,
			"byteLength":6912,
			"byteOffset":74702076,
			"target":34963
		},
		{
			"buffer":0,
			"byteLength":18288,
			"byteOffset":74708988,
			"target":34962
		},
		{
			"buffer":0,
			"byteLength":18288,
			"byteOffset":74727276,
			"target":34962
		},
		{
			"buffer":0,
			"byteLength":12192,
			"byteOffset":74745564,
			"target":34962
		},
		{
			"buffer":0,
			"byteLength":12192,
			"byteOffset":74757756,
			"target":34962
		},
		{
			"buffer":0,
			"byteLength":6096,
			"byteOffset":74769948,
			"target":34962
		},
		{
			"buffer":0,
			"byteLength":12192,
			"byteOffset":74776044,
			"target":34962
		},
		{
			"buffer":0,
			"byteLength":4608,
			"byteOffset":74788236,
			"target":34963
		},
		{
			"buffer":0,
			"byteLength":18192,
			"byteOffset":74792844,
			"target":34962
		},
		{
			"buffer":0,
			"byteLength":18192,
			"byteOffset":74811036,
			"target":34962
		},
		{
			"buffer":0,
			"byteLength":12128,
			"byteOffset":74829228,
			"target":34962
		},
		{
			"buffer":0,
			"byteLength":12128,
			"byteOffset":74841356,
			"target":34962
		},
		{
			"buffer":0,
			"byteLength":6064,
			"byteOffset":74853484,
			"target":34962
		},
		{
			"buffer":0,
			"byteLength":12128,
			"byteOffset":74859548,
			"target":34962
		},
		{
			"buffer":0,
			"byteLength":4584,
			"byteOffset":74871676,
			"target":34963
		},
		{
			"buffer":0,
			"byteLength":6912,
			"byteOffset":74876260,
			"target":34962
		},
		{
			"buffer":0,
			"byteLength":6912,
			"byteOffset":74883172,
			"target":34962
		},
		{
			"buffer":0,
			"byteLength":4608,
			"byteOffset":74890084,
			"target":34962
		},
		{
			"buffer":0,
			"byteLength":4608,
			"byteOffset":74894692,
			"target":34962
		},
		{
			"buffer":0,
			"byteLength":2304,
			"byteOffset":74899300,
			"target":34962
		},
		{
			"buffer":0,
			"byteLength":4608,
			"byteOffset":74901604,
			"target":34962
		},
		{
			"buffer":0,
			"byteLength":6840,
			"byteOffset":74906212,
			"target":34963
		},
		{
			"buffer":0,
			"byteLength":6912,
			"byteOffset":74913052,
			"target":34962
		},
		{
			"buffer":0,
			"byteLength":6912,
			"byteOffset":74919964,
			"target":34962
		},
		{
			"buffer":0,
			"byteLength":4608,
			"byteOffset":74926876,
			"target":34962
		},
		{
			"buffer":0,
			"byteLength":4608,
			"byteOffset":74931484,
			"target":34962
		},
		{
			"buffer":0,
			"byteLength":2304,
			"byteOffset":74936092,
			"target":34962
		},
		{
			"buffer":0,
			"byteLength":4608,
			"byteOffset":74938396,
			"target":34962
		},
		{
			"buffer":0,
			"byteLength":6840,
			"byteOffset":74943004,
			"target":34963
		},
		{
			"buffer":0,
			"byteLength":22260,
			"byteOffset":74949844,
			"target":34962
		},
		{
			"buffer":0,
			"byteLength":22260,
			"byteOffset":74972104,
			"target":34962
		},
		{
			"buffer":0,
			"byteLength":14840,
			"byteOffset":74994364,
			"target":34962
		},
		{
			"buffer":0,
			"byteLength":14840,
			"byteOffset":75009204,
			"target":34962
		},
		{
			"buffer":0,
			"byteLength":7420,
			"byteOffset":75024044,
			"target":34962
		},
		{
			"buffer":0,
			"byteLength":14840,
			"byteOffset":75031464,
			"target":34962
		},
		{
			"buffer":0,
			"byteLength":5568,
			"byteOffset":75046304,
			"target":34963
		},
		{
			"buffer":0,
			"byteLength":22260,
			"byteOffset":75051872,
			"target":34962
		},
		{
			"buffer":0,
			"byteLength":22260,
			"byteOffset":75074132,
			"target":34962
		},
		{
			"buffer":0,
			"byteLength":14840,
			"byteOffset":75096392,
			"target":34962
		},
		{
			"buffer":0,
			"byteLength":14840,
			"byteOffset":75111232,
			"target":34962
		},
		{
			"buffer":0,
			"byteLength":7420,
			"byteOffset":75126072,
			"target":34962
		},
		{
			"buffer":0,
			"byteLength":14840,
			"byteOffset":75133492,
			"target":34962
		},
		{
			"buffer":0,
			"byteLength":5568,
			"byteOffset":75148332,
			"target":34963
		}
	],
	"samplers":[
		{
			"magFilter":9729,
			"minFilter":9987
		}
	],
	"buffers":[
		{
			"byteLength":75153900,
			"uri":"Parque%20Ejemplo%201.bin"
		}
	]
}
